<?xml version="1.0" encoding="UTF-8" standalone="no"?>
<svg
   xmlns:dc="http://purl.org/dc/elements/1.1/"
   xmlns:cc="http://creativecommons.org/ns#"
   xmlns:rdf="http://www.w3.org/1999/02/22-rdf-syntax-ns#"
   xmlns:svg="http://www.w3.org/2000/svg"
   xmlns="http://www.w3.org/2000/svg"
   xmlns:sodipodi="http://sodipodi.sourceforge.net/DTD/sodipodi-0.dtd"
   xmlns:inkscape="http://www.inkscape.org/namespaces/inkscape"
   version="1.1"
   x="0"
   y="0"
   width="24"
   height="24"
   viewBox="0, 0, 24, 24"
   id="svg2"
   inkscape:version="0.91 r13725"
   sodipodi:docname="icon_add.svg">
  <metadata
     id="metadata14">
    <rdf:RDF>
      <cc:Work
         rdf:about="">
        <dc:format>image/svg+xml</dc:format>
        <dc:type
           rdf:resource="http://purl.org/dc/dcmitype/StillImage" />
      </cc:Work>
    </rdf:RDF>
  </metadata>
  <defs
     id="defs12" />
  <sodipodi:namedview
     pagecolor="#ffffff"
     bordercolor="#666666"
     borderopacity="1"
     objecttolerance="10"
     gridtolerance="10"
     guidetolerance="10"
     inkscape:pageopacity="0"
     inkscape:pageshadow="2"
     inkscape:window-width="1440"
     inkscape:window-height="821"
     id="namedview10"
     showgrid="false"
     inkscape:zoom="9.8333333"
     inkscape:cx="0.15254237"
     inkscape:cy="12"
     inkscape:window-x="0"
     inkscape:window-y="0"
     inkscape:window-maximized="1"
     inkscape:current-layer="svg2" />
  <g
     id="Background">
    <rect
       x="0"
       y="0"
       width="24"
       height="24"
       fill="#000000"
       fill-opacity="0"
       id="rect5" />
  </g>
  <g
     id="Layer_1"
     style="fill:#000000;fill-opacity:1">
    <path
       d="M20.069,10.448 L13.552,10.448 L13.552,3.931 C13.552,3.062 12.869,3 12,3 C11.131,3 10.448,3.062 10.448,3.931 L10.448,10.448 L3.931,10.448 C3.062,10.448 3,11.131 3,12 C3,12.807 3.062,13.552 3.931,13.552 L10.448,13.552 L10.448,20.069 C10.448,20.876 11.131,21 12,21 C12.869,21 13.552,20.876 13.552,20.069 L13.552,13.552 L20.069,13.552 C20.938,13.552 21,12.807 21,12 C21,11.131 20.938,10.448 20.069,10.448 z"
       fill="#FFFFFF"
       id="path8"
       style="fill:#000000;fill-opacity:1" />
  </g>
</svg>
